<svg version="1.1" id="Layer_1" xmlns="http://www.w3.org/2000/svg" xmlns:xlink="http://www.w3.org/1999/xlink" x="0px" y="0px"
	width="100%" viewBox="0 0 512 512" enable-background="new 0 0 512 512" xml:space="preserve">
<path fill="#000000" opacity="1.000000" stroke="none" 
	d="
M513.000000,122.531342 
	C512.454407,129.767685 511.936523,136.537720 511.358582,143.302643 
	C508.279449,179.345490 502.226410,214.648590 485.340118,247.233261 
	C472.875122,271.286438 455.094910,289.550385 428.747070,298.014252 
	C409.879395,304.075226 390.550232,305.683502 370.762177,303.530273 
	C354.728485,301.785614 339.504822,297.746765 325.146393,290.485474 
	C319.070068,287.412537 313.383118,283.692322 307.875183,278.288177 
	C303.660156,285.653442 299.364716,292.507050 295.696503,299.681335 
	C279.471161,331.414856 269.373108,365.178986 263.660248,400.232758 
	C261.560822,413.114746 259.871643,426.096100 259.197296,439.211151 
	C258.532837,452.134186 257.553101,465.040375 257.338715,477.987213 
	C257.226044,484.790985 252.194519,490.031860 245.561310,490.337585 
	C238.939133,490.642853 233.479248,485.877441 232.729385,479.054077 
	C232.566330,477.570404 232.594193,476.053162 232.668121,474.557983 
	C233.409103,459.572632 232.197662,444.605347 231.428268,429.689972 
	C229.987656,401.762329 226.940598,373.959381 221.950714,346.376129 
	C217.305023,320.695526 210.750015,295.565308 201.986679,271.015198 
	C199.147461,263.061279 195.596771,255.361618 192.382889,247.540985 
	C191.328568,244.975418 190.027161,243.983154 187.058899,245.447067 
	C173.228973,252.267883 158.536392,255.874710 143.193008,257.496826 
	C117.512222,260.211853 92.822372,257.362396 69.723251,245.300339 
	C53.691608,236.928833 42.083900,223.914795 32.799290,208.591171 
	C19.786907,187.115128 12.892517,163.481384 8.123830,139.120392 
	C5.323580,124.815239 3.288146,110.379272 2.645622,95.786591 
	C2.578772,94.268326 2.591056,92.779472 1.245551,91.283539 
	C1.000000,70.979103 1.000000,50.958210 1.280695,30.281548 
	C4.590815,25.329821 8.865639,23.526423 13.976811,23.657215 
	C24.268543,23.920574 34.555496,23.926298 44.858238,24.388130 
	C61.761700,25.145845 78.556778,26.513411 95.333374,28.570272 
	C117.117256,31.241049 138.418777,35.837757 158.970123,43.662178 
	C176.661987,50.397919 193.080414,59.428535 206.738159,72.605042 
	C218.705627,84.150810 226.001404,98.749947 230.279541,114.705162 
	C235.264236,133.295486 236.176468,152.128647 233.518707,171.292770 
	C230.775543,191.072647 224.323059,209.230804 212.722046,225.488571 
	C211.596893,227.065338 211.304764,228.235168 212.107239,229.984482 
	C215.083023,236.471420 218.071930,242.958328 220.806671,249.548676 
	C228.063141,267.035767 233.622574,285.079834 238.387192,303.393433 
	C242.458435,319.041931 245.250336,334.952271 248.367615,351.245270 
	C257.899384,317.825287 271.176697,286.641754 290.501343,258.220581 
	C291.797119,256.314850 291.364624,254.919266 290.597717,253.175705 
	C277.943909,224.406616 275.842102,194.625885 282.762634,164.202469 
	C286.737274,146.729477 294.455658,130.830078 307.508392,118.350044 
	C322.731018,103.795311 341.216614,94.425842 360.976593,87.433090 
	C391.267822,76.713478 422.858002,73.052650 454.592621,70.873428 
	C469.143463,69.874214 483.795135,69.093285 498.451843,69.568848 
	C504.671722,69.770660 509.893738,71.097153 513.000000,77.000000 
	C513.000000,92.020897 513.000000,107.041786 513.000000,122.531342 
M345.903931,121.481300 
	C344.503723,122.374794 343.126892,123.307655 341.699707,124.155746 
	C325.978333,133.498199 314.662140,146.257950 309.190369,164.104233 
	C303.919403,181.295715 303.077362,198.709946 305.650177,216.278320 
	C306.410034,221.467117 307.015320,227.062912 310.201965,232.143173 
	C311.695343,230.776535 313.133484,229.828583 314.057312,228.518051 
	C315.116821,227.015060 316.237061,225.631378 317.514923,224.304443 
	C334.782227,206.374084 354.060486,190.978287 375.522247,178.365921 
	C384.832336,172.894684 394.179535,167.382355 404.582550,164.204727 
	C409.807953,162.608612 416.441925,166.408600 418.373138,171.471375 
	C420.976410,178.296219 419.232452,183.605820 413.288116,186.788147 
	C407.284729,190.002075 401.220184,193.103271 395.247345,196.372467 
	C372.332275,208.914917 351.916016,224.745789 334.351624,244.043854 
	C330.534729,248.237473 325.650970,251.836639 323.402405,257.919250 
	C331.686890,266.371460 342.023590,271.414124 353.291840,274.600128 
	C370.720062,279.527863 388.471649,280.858704 406.336823,277.543732 
	C421.421326,274.744720 435.528748,269.499786 446.529327,258.166534 
	C458.328705,246.010284 466.025299,231.291565 471.675354,215.553787 
	C484.451935,179.965652 487.152771,142.747482 488.598236,105.395325 
	C489.007935,94.807953 488.660736,94.794601 478.039001,95.350105 
	C477.872681,95.358810 477.705719,95.359848 477.539154,95.357811 
	C456.434937,95.100006 435.522766,97.229973 414.681610,100.332253 
	C390.927429,103.868149 367.949097,109.897896 345.903931,121.481300 
M161.166031,195.311371 
	C149.191620,180.090164 135.503616,166.638519 119.874336,155.169983 
	C112.527260,149.778809 104.558159,145.202423 97.912994,138.895020 
	C92.587433,133.840134 91.922577,126.216469 96.046951,120.990547 
	C99.571503,116.524651 107.223557,115.295197 112.818871,119.042641 
	C127.555954,128.912781 142.108627,139.134888 155.201584,151.113602 
	C170.062607,164.709930 182.974960,180.081604 193.756287,197.183075 
	C194.715256,198.704208 195.369919,200.961121 198.216171,201.214218 
	C205.424362,187.922638 208.502563,173.421371 209.550766,158.488693 
	C210.224716,148.887985 209.529541,139.289719 207.731674,129.741257 
	C205.031326,115.399590 199.849670,102.268661 189.552368,91.749016 
	C177.094803,79.022438 161.584564,71.084023 144.948547,65.367188 
	C111.532234,53.883923 76.838829,50.366848 41.773323,49.353268 
	C37.794376,49.238258 33.752171,49.942707 29.847956,48.831970 
	C26.291470,47.820156 25.262661,49.478718 25.365505,52.613583 
	C25.599371,59.742222 25.751003,66.870407 26.095020,73.999336 
	C27.022982,93.229080 29.037830,112.278145 32.293289,131.235718 
	C36.023430,152.957489 42.065441,173.897751 53.116062,193.111313 
	C60.143757,205.330276 68.760941,216.192612 81.676819,222.781433 
	C104.897171,234.626862 129.260391,235.633102 154.257538,230.206985 
	C162.680786,228.378571 170.824539,225.811279 178.211060,221.011703 
	C173.442688,211.841965 167.335068,203.985550 161.166031,195.311371 
z"/>
</svg>